<svg id="visual" viewBox="0 0 900 300" width="900" height="300" xmlns="http://www.w3.org/2000/svg" xmlns:xlink="http://www.w3.org/1999/xlink" version="1.1"><rect x="0" y="0" width="900" height="300" fill="#0b0d15"></rect><path d="M0 164L30 172C60 180 120 196 180 194.3C240 192.7 300 173.3 360 163.2C420 153 480 152 540 155.7C600 159.3 660 167.7 720 179.5C780 191.3 840 206.7 870 214.3L900 222L900 301L870 301C840 301 780 301 720 301C660 301 600 301 540 301C480 301 420 301 360 301C300 301 240 301 180 301C120 301 60 301 30 301L0 301Z" fill="#4382e1" stroke-linecap="round" stroke-linejoin="miter"></path></svg>