<svg id="visual" viewBox="0 0 900 250" width="900" height="250" xmlns="http://www.w3.org/2000/svg" xmlns:xlink="http://www.w3.org/1999/xlink" version="1.1"><rect x="0" y="0" width="900" height="250" fill="#0b0d15"></rect><path d="M0 93L30 100.7C60 108.3 120 123.7 180 126C240 128.3 300 117.7 360 113.7C420 109.7 480 112.3 540 121.3C600 130.3 660 145.7 720 143.5C780 141.3 840 121.7 870 111.8L900 102L900 251L870 251C840 251 780 251 720 251C660 251 600 251 540 251C480 251 420 251 360 251C300 251 240 251 180 251C120 251 60 251 30 251L0 251Z" fill="#8bcbff"></path><path d="M0 168L30 170.3C60 172.7 120 177.3 180 174.3C240 171.3 300 160.7 360 152.8C420 145 480 140 540 141.3C600 142.7 660 150.3 720 155.5C780 160.7 840 163.3 870 164.7L900 166L900 251L870 251C840 251 780 251 720 251C660 251 600 251 540 251C480 251 420 251 360 251C300 251 240 251 180 251C120 251 60 251 30 251L0 251Z" fill="#6dbafb"></path><path d="M0 203L30 203.5C60 204 120 205 180 208.2C240 211.3 300 216.7 360 218.3C420 220 480 218 540 215C600 212 660 208 720 205.7C780 203.3 840 202.7 870 202.3L900 202L900 251L870 251C840 251 780 251 720 251C660 251 600 251 540 251C480 251 420 251 360 251C300 251 240 251 180 251C120 251 60 251 30 251L0 251Z" fill="#4ba9f6"></path></svg>