<svg id="visual" viewBox="0 0 900 200" width="900" height="200" xmlns="http://www.w3.org/2000/svg" xmlns:xlink="http://www.w3.org/1999/xlink" version="1.1"><rect x="0" y="0" width="900" height="200" fill="#0b0d15"></rect><path d="M0 111L8.8 108.7C17.7 106.3 35.3 101.7 53 98.5C70.7 95.3 88.3 93.7 106 97.5C123.7 101.3 141.3 110.7 159 114C176.7 117.3 194.3 114.7 212 116.7C229.7 118.7 247.3 125.3 265 127.2C282.7 129 300.3 126 318 120.7C335.7 115.3 353.3 107.7 371 102.8C388.7 98 406.3 96 423.8 99.7C441.3 103.3 458.7 112.7 476.2 120C493.7 127.3 511.3 132.7 529 134.7C546.7 136.7 564.3 135.3 582 132.5C599.7 129.7 617.3 125.3 635 121.8C652.7 118.3 670.3 115.7 688 114.3C705.7 113 723.3 113 741 114.3C758.7 115.7 776.3 118.3 794 120.3C811.7 122.3 829.3 123.7 847 123.2C864.7 122.7 882.3 120.3 891.2 119.2L900 118L900 201L891.2 201C882.3 201 864.7 201 847 201C829.3 201 811.7 201 794 201C776.3 201 758.7 201 741 201C723.3 201 705.7 201 688 201C670.3 201 652.7 201 635 201C617.3 201 599.7 201 582 201C564.3 201 546.7 201 529 201C511.3 201 493.7 201 476.2 201C458.7 201 441.3 201 423.8 201C406.3 201 388.7 201 371 201C353.3 201 335.7 201 318 201C300.3 201 282.7 201 265 201C247.3 201 229.7 201 212 201C194.3 201 176.7 201 159 201C141.3 201 123.7 201 106 201C88.3 201 70.7 201 53 201C35.3 201 17.7 201 8.8 201L0 201Z" fill="#84b3ff"></path><path d="M0 113L8.8 116.7C17.7 120.3 35.3 127.7 53 133.2C70.7 138.7 88.3 142.3 106 140.5C123.7 138.7 141.3 131.3 159 129.5C176.7 127.7 194.3 131.3 212 129.8C229.7 128.3 247.3 121.7 265 122.7C282.7 123.7 300.3 132.3 318 137C335.7 141.7 353.3 142.3 371 143.8C388.7 145.3 406.3 147.7 423.8 142.8C441.3 138 458.7 126 476.2 121.3C493.7 116.7 511.3 119.3 529 124.7C546.7 130 564.3 138 582 138.8C599.7 139.7 617.3 133.3 635 133.2C652.7 133 670.3 139 688 138C705.7 137 723.3 129 741 123C758.7 117 776.3 113 794 116.8C811.7 120.7 829.3 132.3 847 131.7C864.7 131 882.3 118 891.2 111.5L900 105L900 201L891.2 201C882.3 201 864.7 201 847 201C829.3 201 811.7 201 794 201C776.3 201 758.7 201 741 201C723.3 201 705.7 201 688 201C670.3 201 652.7 201 635 201C617.3 201 599.7 201 582 201C564.3 201 546.7 201 529 201C511.3 201 493.7 201 476.2 201C458.7 201 441.3 201 423.8 201C406.3 201 388.7 201 371 201C353.3 201 335.7 201 318 201C300.3 201 282.7 201 265 201C247.3 201 229.7 201 212 201C194.3 201 176.7 201 159 201C141.3 201 123.7 201 106 201C88.3 201 70.7 201 53 201C35.3 201 17.7 201 8.8 201L0 201Z" fill="#70a6ff"></path><path d="M0 122L8.8 128.3C17.7 134.7 35.3 147.3 53 153C70.7 158.7 88.3 157.3 106 156.7C123.7 156 141.3 156 159 154.3C176.7 152.7 194.3 149.3 212 146.8C229.7 144.3 247.3 142.7 265 142.5C282.7 142.3 300.3 143.7 318 140.5C335.7 137.3 353.3 129.7 371 129.5C388.7 129.3 406.3 136.7 423.8 142.5C441.3 148.3 458.7 152.7 476.2 150.2C493.7 147.7 511.3 138.3 529 136.5C546.7 134.7 564.3 140.3 582 143.5C599.7 146.7 617.3 147.3 635 146C652.7 144.7 670.3 141.3 688 141.8C705.7 142.3 723.3 146.7 741 146.8C758.7 147 776.3 143 794 138.2C811.7 133.3 829.3 127.7 847 131C864.7 134.3 882.3 146.7 891.2 152.8L900 159L900 201L891.2 201C882.3 201 864.7 201 847 201C829.3 201 811.7 201 794 201C776.3 201 758.7 201 741 201C723.3 201 705.7 201 688 201C670.3 201 652.7 201 635 201C617.3 201 599.7 201 582 201C564.3 201 546.7 201 529 201C511.3 201 493.7 201 476.2 201C458.7 201 441.3 201 423.8 201C406.3 201 388.7 201 371 201C353.3 201 335.7 201 318 201C300.3 201 282.7 201 265 201C247.3 201 229.7 201 212 201C194.3 201 176.7 201 159 201C141.3 201 123.7 201 106 201C88.3 201 70.7 201 53 201C35.3 201 17.7 201 8.8 201L0 201Z" fill="#5c99ff"></path><path d="M0 159L8.8 157C17.7 155 35.3 151 53 147.5C70.7 144 88.3 141 106 140.2C123.7 139.3 141.3 140.7 159 146.2C176.7 151.7 194.3 161.3 212 162.7C229.7 164 247.3 157 265 156.7C282.7 156.3 300.3 162.7 318 163C335.7 163.3 353.3 157.7 371 153C388.7 148.3 406.3 144.7 423.8 142.8C441.3 141 458.7 141 476.2 145C493.7 149 511.3 157 529 158.8C546.7 160.7 564.3 156.3 582 152.7C599.7 149 617.3 146 635 145.7C652.7 145.3 670.3 147.7 688 148.5C705.7 149.3 723.3 148.7 741 147.3C758.7 146 776.3 144 794 146.3C811.7 148.7 829.3 155.3 847 159.3C864.7 163.3 882.3 164.7 891.2 165.3L900 166L900 201L891.2 201C882.3 201 864.7 201 847 201C829.3 201 811.7 201 794 201C776.3 201 758.7 201 741 201C723.3 201 705.7 201 688 201C670.3 201 652.7 201 635 201C617.3 201 599.7 201 582 201C564.3 201 546.7 201 529 201C511.3 201 493.7 201 476.2 201C458.7 201 441.3 201 423.8 201C406.3 201 388.7 201 371 201C353.3 201 335.7 201 318 201C300.3 201 282.7 201 265 201C247.3 201 229.7 201 212 201C194.3 201 176.7 201 159 201C141.3 201 123.7 201 106 201C88.3 201 70.7 201 53 201C35.3 201 17.7 201 8.8 201L0 201Z" fill="#468cff"></path><path d="M0 155L8.8 157.3C17.7 159.7 35.3 164.3 53 165.3C70.7 166.3 88.3 163.7 106 160.8C123.7 158 141.3 155 159 156.2C176.7 157.3 194.3 162.7 212 165.5C229.7 168.3 247.3 168.7 265 166.3C282.7 164 300.3 159 318 158C335.7 157 353.3 160 371 163.8C388.7 167.7 406.3 172.3 423.8 172.8C441.3 173.3 458.7 169.7 476.2 168.8C493.7 168 511.3 170 529 168.3C546.7 166.7 564.3 161.3 582 161C599.7 160.7 617.3 165.3 635 168C652.7 170.7 670.3 171.3 688 171C705.7 170.7 723.3 169.3 741 170.5C758.7 171.7 776.3 175.3 794 174C811.7 172.7 829.3 166.3 847 165.7C864.7 165 882.3 170 891.2 172.5L900 175L900 201L891.2 201C882.3 201 864.7 201 847 201C829.3 201 811.7 201 794 201C776.3 201 758.7 201 741 201C723.3 201 705.7 201 688 201C670.3 201 652.7 201 635 201C617.3 201 599.7 201 582 201C564.3 201 546.7 201 529 201C511.3 201 493.7 201 476.2 201C458.7 201 441.3 201 423.8 201C406.3 201 388.7 201 371 201C353.3 201 335.7 201 318 201C300.3 201 282.7 201 265 201C247.3 201 229.7 201 212 201C194.3 201 176.7 201 159 201C141.3 201 123.7 201 106 201C88.3 201 70.7 201 53 201C35.3 201 17.7 201 8.8 201L0 201Z" fill="#2d7fff"></path><path d="M0 186L8.8 185C17.7 184 35.3 182 53 182.8C70.7 183.7 88.3 187.3 106 186.2C123.7 185 141.3 179 159 179C176.7 179 194.3 185 212 186.7C229.7 188.3 247.3 185.7 265 186.3C282.7 187 300.3 191 318 193C335.7 195 353.3 195 371 195C388.7 195 406.3 195 423.8 192.5C441.3 190 458.7 185 476.2 183.2C493.7 181.3 511.3 182.7 529 183.2C546.7 183.7 564.3 183.3 582 183.7C599.7 184 617.3 185 635 183.3C652.7 181.7 670.3 177.3 688 177.3C705.7 177.3 723.3 181.7 741 183.2C758.7 184.7 776.3 183.3 794 181.5C811.7 179.7 829.3 177.3 847 178.8C864.7 180.3 882.3 185.7 891.2 188.3L900 191L900 201L891.2 201C882.3 201 864.7 201 847 201C829.3 201 811.7 201 794 201C776.3 201 758.7 201 741 201C723.3 201 705.7 201 688 201C670.3 201 652.7 201 635 201C617.3 201 599.7 201 582 201C564.3 201 546.7 201 529 201C511.3 201 493.7 201 476.2 201C458.7 201 441.3 201 423.8 201C406.3 201 388.7 201 371 201C353.3 201 335.7 201 318 201C300.3 201 282.7 201 265 201C247.3 201 229.7 201 212 201C194.3 201 176.7 201 159 201C141.3 201 123.7 201 106 201C88.3 201 70.7 201 53 201C35.3 201 17.7 201 8.8 201L0 201Z" fill="#0071ff"></path></svg>