<svg id="visual" viewBox="0 0 900 300" width="900" height="300" xmlns="http://www.w3.org/2000/svg" xmlns:xlink="http://www.w3.org/1999/xlink" version="1.1"><rect x="0" y="0" width="900" height="300" fill="#0b0d15"></rect><path d="M0 168L8.8 164.3C17.7 160.7 35.3 153.3 53 148.5C70.7 143.7 88.3 141.3 106 147C123.7 152.7 141.3 166.3 159 171.2C176.7 176 194.3 172 212 175.2C229.7 178.3 247.3 188.7 265 191.5C282.7 194.3 300.3 189.7 318 181.5C335.7 173.3 353.3 161.7 371 154.5C388.7 147.3 406.3 144.7 423.8 150.3C441.3 156 458.7 170 476.2 181C493.7 192 511.3 200 529 202.8C546.7 205.7 564.3 203.3 582 199C599.7 194.7 617.3 188.3 635 183C652.7 177.7 670.3 173.3 688 171.2C705.7 169 723.3 169 741 171.2C758.7 173.3 776.3 177.7 794 180.8C811.7 184 829.3 186 847 185.3C864.7 184.7 882.3 181.3 891.2 179.7L900 178L900 301L891.2 301C882.3 301 864.7 301 847 301C829.3 301 811.7 301 794 301C776.3 301 758.7 301 741 301C723.3 301 705.7 301 688 301C670.3 301 652.7 301 635 301C617.3 301 599.7 301 582 301C564.3 301 546.7 301 529 301C511.3 301 493.7 301 476.2 301C458.7 301 441.3 301 423.8 301C406.3 301 388.7 301 371 301C353.3 301 335.7 301 318 301C300.3 301 282.7 301 265 301C247.3 301 229.7 301 212 301C194.3 301 176.7 301 159 301C141.3 301 123.7 301 106 301C88.3 301 70.7 301 53 301C35.3 301 17.7 301 8.8 301L0 301Z" fill="#84b3ff"></path><path d="M0 170L8.8 175.5C17.7 181 35.3 192 53 200.3C70.7 208.7 88.3 214.3 106 211.5C123.7 208.7 141.3 197.3 159 194.5C176.7 191.7 194.3 197.3 212 195C229.7 192.7 247.3 182.3 265 183.7C282.7 185 300.3 198 318 205.3C335.7 212.7 353.3 214.3 371 216.7C388.7 219 406.3 222 423.8 214.7C441.3 207.3 458.7 189.7 476.2 182.7C493.7 175.7 511.3 179.3 529 187.2C546.7 195 564.3 207 582 208.3C599.7 209.7 617.3 200.3 635 200.3C652.7 200.3 670.3 209.7 688 208.2C705.7 206.7 723.3 194.3 741 185.3C758.7 176.3 776.3 170.7 794 176.3C811.7 182 829.3 199 847 197.8C864.7 196.7 882.3 177.3 891.2 167.7L900 158L900 301L891.2 301C882.3 301 864.7 301 847 301C829.3 301 811.7 301 794 301C776.3 301 758.7 301 741 301C723.3 301 705.7 301 688 301C670.3 301 652.7 301 635 301C617.3 301 599.7 301 582 301C564.3 301 546.7 301 529 301C511.3 301 493.7 301 476.2 301C458.7 301 441.3 301 423.8 301C406.3 301 388.7 301 371 301C353.3 301 335.7 301 318 301C300.3 301 282.7 301 265 301C247.3 301 229.7 301 212 301C194.3 301 176.7 301 159 301C141.3 301 123.7 301 106 301C88.3 301 70.7 301 53 301C35.3 301 17.7 301 8.8 301L0 301Z" fill="#70a6ff"></path><path d="M0 184L8.8 193.3C17.7 202.7 35.3 221.3 53 229.8C70.7 238.3 88.3 236.7 106 235.7C123.7 234.7 141.3 234.3 159 231.7C176.7 229 194.3 224 212 220.5C229.7 217 247.3 215 265 214.8C282.7 214.7 300.3 216.3 318 211.5C335.7 206.7 353.3 195.3 371 195.2C388.7 195 406.3 206 423.8 214.8C441.3 223.7 458.7 230.3 476.2 226.7C493.7 223 511.3 209 529 206C546.7 203 564.3 211 582 215.7C599.7 220.3 617.3 221.7 635 219.8C652.7 218 670.3 213 688 213.7C705.7 214.3 723.3 220.7 741 220.7C758.7 220.7 776.3 214.3 794 207.2C811.7 200 829.3 192 847 197.2C864.7 202.3 882.3 220.7 891.2 229.8L900 239L900 301L891.2 301C882.3 301 864.7 301 847 301C829.3 301 811.7 301 794 301C776.3 301 758.7 301 741 301C723.3 301 705.7 301 688 301C670.3 301 652.7 301 635 301C617.3 301 599.7 301 582 301C564.3 301 546.7 301 529 301C511.3 301 493.7 301 476.2 301C458.7 301 441.3 301 423.8 301C406.3 301 388.7 301 371 301C353.3 301 335.7 301 318 301C300.3 301 282.7 301 265 301C247.3 301 229.7 301 212 301C194.3 301 176.7 301 159 301C141.3 301 123.7 301 106 301C88.3 301 70.7 301 53 301C35.3 301 17.7 301 8.8 301L0 301Z" fill="#5c99ff"></path><path d="M0 239L8.8 236C17.7 233 35.3 227 53 221.7C70.7 216.3 88.3 211.7 106 210.3C123.7 209 141.3 211 159 219.2C176.7 227.3 194.3 241.7 212 243.8C229.7 246 247.3 236 265 235.7C282.7 235.3 300.3 244.7 318 245C335.7 245.3 353.3 236.7 371 229.7C388.7 222.7 406.3 217.3 423.8 214.7C441.3 212 458.7 212 476.2 218C493.7 224 511.3 236 529 238.7C546.7 241.3 564.3 234.7 582 229.2C599.7 223.7 617.3 219.3 635 218.8C652.7 218.3 670.3 221.7 688 222.8C705.7 224 723.3 223 741 221.2C758.7 219.3 776.3 216.7 794 220.3C811.7 224 829.3 234 847 240C864.7 246 882.3 248 891.2 249L900 250L900 301L891.2 301C882.3 301 864.7 301 847 301C829.3 301 811.7 301 794 301C776.3 301 758.7 301 741 301C723.3 301 705.7 301 688 301C670.3 301 652.7 301 635 301C617.3 301 599.7 301 582 301C564.3 301 546.7 301 529 301C511.3 301 493.7 301 476.2 301C458.7 301 441.3 301 423.8 301C406.3 301 388.7 301 371 301C353.3 301 335.7 301 318 301C300.3 301 282.7 301 265 301C247.3 301 229.7 301 212 301C194.3 301 176.7 301 159 301C141.3 301 123.7 301 106 301C88.3 301 70.7 301 53 301C35.3 301 17.7 301 8.8 301L0 301Z" fill="#468cff"></path><path d="M0 232L8.8 235.7C17.7 239.3 35.3 246.7 53 248.5C70.7 250.3 88.3 246.7 106 242.5C123.7 238.3 141.3 233.7 159 235.2C176.7 236.7 194.3 244.3 212 248.7C229.7 253 247.3 254 265 250.5C282.7 247 300.3 239 318 237.3C335.7 235.7 353.3 240.3 371 246.2C388.7 252 406.3 259 423.8 259.7C441.3 260.3 458.7 254.7 476.2 253.5C493.7 252.3 511.3 255.7 529 253.2C546.7 250.7 564.3 242.3 582 241.8C599.7 241.3 617.3 248.7 635 252.8C652.7 257 670.3 258 688 257.5C705.7 257 723.3 255 741 256.7C758.7 258.3 776.3 263.7 794 261.5C811.7 259.3 829.3 249.7 847 248.7C864.7 247.7 882.3 255.3 891.2 259.2L900 263L900 301L891.2 301C882.3 301 864.7 301 847 301C829.3 301 811.7 301 794 301C776.3 301 758.7 301 741 301C723.3 301 705.7 301 688 301C670.3 301 652.7 301 635 301C617.3 301 599.7 301 582 301C564.3 301 546.7 301 529 301C511.3 301 493.7 301 476.2 301C458.7 301 441.3 301 423.8 301C406.3 301 388.7 301 371 301C353.3 301 335.7 301 318 301C300.3 301 282.7 301 265 301C247.3 301 229.7 301 212 301C194.3 301 176.7 301 159 301C141.3 301 123.7 301 106 301C88.3 301 70.7 301 53 301C35.3 301 17.7 301 8.8 301L0 301Z" fill="#2d7fff"></path><path d="M0 280L8.8 278.5C17.7 277 35.3 274 53 275C70.7 276 88.3 281 106 279.2C123.7 277.3 141.3 268.7 159 268.8C176.7 269 194.3 278 212 280.5C229.7 283 247.3 279 265 280C282.7 281 300.3 287 318 290.2C335.7 293.3 353.3 293.7 371 293.8C388.7 294 406.3 294 423.8 290.2C441.3 286.3 458.7 278.7 476.2 275.7C493.7 272.7 511.3 274.3 529 275C546.7 275.7 564.3 275.3 582 276C599.7 276.7 617.3 278.3 635 275.7C652.7 273 670.3 266 688 265.8C705.7 265.7 723.3 272.3 741 274.7C758.7 277 776.3 275 794 272.5C811.7 270 829.3 267 847 269.3C864.7 271.7 882.3 279.3 891.2 283.2L900 287L900 301L891.2 301C882.3 301 864.7 301 847 301C829.3 301 811.7 301 794 301C776.3 301 758.7 301 741 301C723.3 301 705.7 301 688 301C670.3 301 652.7 301 635 301C617.3 301 599.7 301 582 301C564.3 301 546.7 301 529 301C511.3 301 493.7 301 476.2 301C458.7 301 441.3 301 423.8 301C406.3 301 388.7 301 371 301C353.3 301 335.7 301 318 301C300.3 301 282.7 301 265 301C247.3 301 229.7 301 212 301C194.3 301 176.7 301 159 301C141.3 301 123.7 301 106 301C88.3 301 70.7 301 53 301C35.3 301 17.7 301 8.8 301L0 301Z" fill="#0071ff"></path></svg>