<svg id="visual" viewBox="0 0 900 250" width="900" height="250" xmlns="http://www.w3.org/2000/svg" xmlns:xlink="http://www.w3.org/1999/xlink" version="1.1"><rect x="0" y="0" width="900" height="250" fill="#0b0d15"></rect><path d="M0 123L11.5 118.8C23 114.7 46 106.3 69 112.7C92 119 115 140 138.2 140C161.3 140 184.7 119 207.8 116.5C231 114 254 130 277 130.5C300 131 323 116 346 111.3C369 106.7 392 112.3 415.2 112.5C438.3 112.7 461.7 107.3 484.8 105.3C508 103.3 531 104.7 554 108.2C577 111.7 600 117.3 623 126.2C646 135 669 147 692.2 142.5C715.3 138 738.7 117 761.8 110.2C785 103.3 808 110.7 831 118.5C854 126.3 877 134.7 888.5 138.8L900 143L900 0L888.5 0C877 0 854 0 831 0C808 0 785 0 761.8 0C738.7 0 715.3 0 692.2 0C669 0 646 0 623 0C600 0 577 0 554 0C531 0 508 0 484.8 0C461.7 0 438.3 0 415.2 0C392 0 369 0 346 0C323 0 300 0 277 0C254 0 231 0 207.8 0C184.7 0 161.3 0 138.2 0C115 0 92 0 69 0C46 0 23 0 11.5 0L0 0Z" fill="#8bcbff"></path><path d="M0 109L11.5 108.7C23 108.3 46 107.7 69 99.2C92 90.7 115 74.3 138.2 67.7C161.3 61 184.7 64 207.8 72.2C231 80.3 254 93.7 277 94.7C300 95.7 323 84.3 346 81.2C369 78 392 83 415.2 81.5C438.3 80 461.7 72 484.8 69C508 66 531 68 554 73C577 78 600 86 623 86.5C646 87 669 80 692.2 78.3C715.3 76.7 738.7 80.3 761.8 79.8C785 79.3 808 74.7 831 79.5C854 84.3 877 98.7 888.5 105.8L900 113L900 0L888.5 0C877 0 854 0 831 0C808 0 785 0 761.8 0C738.7 0 715.3 0 692.2 0C669 0 646 0 623 0C600 0 577 0 554 0C531 0 508 0 484.8 0C461.7 0 438.3 0 415.2 0C392 0 369 0 346 0C323 0 300 0 277 0C254 0 231 0 207.8 0C184.7 0 161.3 0 138.2 0C115 0 92 0 69 0C46 0 23 0 11.5 0L0 0Z" fill="#6dbafb"></path><path d="M0 33L11.5 39.2C23 45.3 46 57.7 69 57.8C92 58 115 46 138.2 44.3C161.3 42.7 184.7 51.3 207.8 50.3C231 49.3 254 38.7 277 34.8C300 31 323 34 346 40.8C369 47.7 392 58.3 415.2 57C438.3 55.7 461.7 42.3 484.8 38.7C508 35 531 41 554 40.5C577 40 600 33 623 35.7C646 38.3 669 50.7 692.2 57.8C715.3 65 738.7 67 761.8 67.3C785 67.7 808 66.3 831 66.5C854 66.7 877 68.3 888.5 69.2L900 70L900 0L888.5 0C877 0 854 0 831 0C808 0 785 0 761.8 0C738.7 0 715.3 0 692.2 0C669 0 646 0 623 0C600 0 577 0 554 0C531 0 508 0 484.8 0C461.7 0 438.3 0 415.2 0C392 0 369 0 346 0C323 0 300 0 277 0C254 0 231 0 207.8 0C184.7 0 161.3 0 138.2 0C115 0 92 0 69 0C46 0 23 0 11.5 0L0 0Z" fill="#4ba9f6"></path></svg>